<svg width="100%" height="100%" viewBox="0 0 426 89" fill="#ffffff" version="1.1" xmlns="http://www.w3.org/2000/svg" xml:space="preserve" style="fill-rule:evenodd;clip-rule:evenodd;stroke-linejoin:round;stroke-miterlimit:1.41421;"><path d="M181.678,71.785l-50.827,0l0,-70.785l-16.007,0l0,70.784l4.812,0l11.195,15.453l36.221,0l30.24,-8.747l0,-11.296l-11.294,0l-4.34,4.591Zm-116.846,-37.921l0,0.001c-0.627,1.654 -1.528,3.104 -2.678,4.309c-1.152,1.206 -2.567,2.185 -4.205,2.909c-1.615,0.714 -3.47,1.076 -5.513,1.076l-35.728,0l0,-27.439l35.728,0c2.041,0 3.896,0.361 5.513,1.076c1.63,0.722 3.038,1.711 4.184,2.938c1.162,1.247 2.07,2.722 2.699,4.384c0.64,1.689 0.964,3.479 0.964,5.321c0,1.911 -0.324,3.736 -0.964,5.425Zm16.582,-19.575c-0.919,-2.239 -2.138,-4.348 -3.617,-6.278l-27.03,-6.989l-49.767,-0.022l0,71.5l4.584,7.662l0,3.378l2.21,3.697l9.212,0l0,-30.485l37.422,0c4.378,0 8.394,-0.749 11.936,-2.226c0.731,-0.304 1.238,-0.554 1.238,-0.554l0,-3.683c2.94,-1.779 10.325,-6.988 13.804,-14.728c1.387,-3.088 2.061,-6.578 2.061,-10.671c0,-3.702 -0.69,-7.269 -2.053,-10.6l0,-0.001Zm343.586,-13.289l-11.333,0l0,6.838l-8.202,8.707l3.436,30.945c-0.034,13.396 -11.391,24.294 -25.318,24.294c-11.946,0 -22.628,-8.127 -25.044,-19.328l-16.006,0l0.031,0.23c1.167,8.68 5.234,16.592 11.761,22.881c7.81,7.526 18.201,11.67 29.258,11.67c13.778,0 27.744,-7.297 35.581,-18.592l0.171,-0.298l-0.891,-3.329c4.126,-6.224 6.556,-13.707 6.556,-21.521l0,-42.497Zm-155.091,42.43l-19.132,-28.263l0,-3.742l-6.082,-10.425l-16.007,0l0,86.237l16.007,0l0,-60.338l6.082,10.164l0,3.842l9.248,11.551l20.026,0l15.099,-24.715l0,50.111l4.145,3.643l0,5.742l11.861,0l0,-86.237l-16.006,0l-25.241,42.43Z"/></svg>